<?xml version="1.0" encoding="UTF-8" standalone="no"?>
<!DOCTYPE svg PUBLIC "-//W3C//DTD SVG 1.1//EN"
"http://www.w3.org/Graphics/SVG/1.1/DTD/svg11.dtd">


<!-- Page 1 -->
<svg x="0" y="0" width="1210" height="288" viewBox="0 0 1210 288" version="1.1" xmlns="http://www.w3.org/2000/svg" xmlns:xlink="http://www.w3.org/1999/xlink"
style="display: block;margin-left: auto;margin-right: auto;">
<defs>
<clipPath id="c0_1"><path d="M18.3,467.5V-192.4H1191.7V467.5Z" /></clipPath>

<style type="text/css"><![CDATA[
text { white-space: pre; }
path, image { pointer-events: none; }

.s1_1{
font-size: 29.54px;
font-family: Arial-BoldMT_b;
fill: #FFFFFF;
}
.s2_1{
font-size: 19.35px;
font-family: Arial-BoldMT_b;
fill: #FFFFFF;
}
.s3_1{
font-size: 24.44px;
font-family: Calibri-Bold_r;
fill: #000000;
}
.s4_1{
font-size: 29.54px;
font-family: Calibri-Bold_r;
fill: #000000;
}

.g0_1{
fill: #FFFFFF;
}
.g1_1{
fill: #E7E6E6;
fill-opacity: 0.45880002;
}
.g2_1{
fill: none;
stroke: #2F528F;
stroke-width: 1.2222222;
stroke-linecap: butt;
stroke-linejoin: miter;
stroke-miterlimit: 8;
}
.g3_1{
fill: #385723;
}
.g4_1{
fill: none;
stroke: #000000;
stroke-width: 0.9166667;
stroke-linecap: butt;
stroke-linejoin: round;
}
.g5_1{
fill: #2E75B6;
}
.g6_1{
fill: #4472C4;
}
.g7_1{
fill: none;
stroke: #000000;
stroke-width: 2.4444444;
stroke-linecap: butt;
stroke-linejoin: round;
}
.g8_1{
fill: none;
stroke: #000000;
stroke-width: 6.111111;
stroke-linecap: butt;
stroke-linejoin: round;
}
.g9_1{
fill: none;
stroke: #70AD47;
stroke-width: 4.888889;
stroke-linecap: butt;
stroke-linejoin: miter;
stroke-miterlimit: 8;
}
.g10_1{
fill: none;
stroke: #FF0000;
stroke-width: 4.888889;
stroke-linecap: butt;
stroke-linejoin: miter;
stroke-miterlimit: 8;
}

]]></style>

</defs>
<path d="M0,0
L0,288
L1210,288
L1210,0 Z " 
fill="#FFFFFF" stroke="none" />
<g clip-path="url(#c0_1)">
<path d="M18.3,-192.4H1191.7V467.5H18.3Z" class="g0_1" />
</g>
<path d="M20.5,120.5c0,-64,82.4,-115.8,184,-115.8c101.7,0,184.1,51.8,184.1,115.8c0,63.9,-82.4,115.7,-184.1,115.7c-101.6,0,-184,-51.8,-184,-115.7Z" class="g1_1" />
<path d="M20.5,120.5c0,-64,82.4,-115.8,184,-115.8c101.7,0,184.1,51.8,184.1,115.8c0,63.9,-82.4,115.7,-184.1,115.7c-101.6,0,-184,-51.8,-184,-115.7Z" class="g2_1" />
<path d="M744.8,119C744.8,55.1,844.8,3.2,968.2,3.2c123.4,0,223.5,51.9,223.5,115.8c0,64,-100.1,115.8,-223.5,115.8C844.8,234.8,744.8,183,744.8,119Z" class="g1_1" />
<path d="M744.8,119C744.8,55.1,844.8,3.2,968.2,3.2c123.4,0,223.5,51.9,223.5,115.8c0,64,-100.1,115.8,-223.5,115.8C844.8,234.8,744.8,183,744.8,119Z" class="g2_1" />
<path d="M390.4,123.1C390.4,59.2,469.4,7.3,566.8,7.3c97.4,0,176.3,51.9,176.3,115.8c0,64,-78.9,115.8,-176.3,115.8c-97.4,0,-176.4,-51.8,-176.4,-115.8Z" class="g1_1" />
<path d="M390.4,123.1C390.4,59.2,469.4,7.3,566.8,7.3c97.4,0,176.3,51.9,176.3,115.8c0,64,-78.9,115.8,-176.3,115.8c-97.4,0,-176.4,-51.8,-176.4,-115.8Z" class="g2_1" />
<path d="M41.8,41.8H187V83.3H41.8Z" class="g3_1" />
<path d="M41.8,41.8H187V83.3H41.8Z" class="g4_1" />
<image preserveAspectRatio="none" x="38" y="36" width="132" height="67" xlink:href="1/img/1.png" />
<text x="56" y="74" dx="0,-0.1,-0.1,0,-0.1,-0.1" class="s1_1">Server</text>
<image preserveAspectRatio="none" x="138" y="36" width="56" height="67" xlink:href="1/img/2.png" />
<text x="156" y="74" class="s1_1">1</text>
<path d="M988.9,33.5h156.6V75H988.9Z" class="g3_1" />
<path d="M988.9,33.5h156.6V75H988.9Z" class="g4_1" />
<image preserveAspectRatio="none" x="991" y="28" width="131" height="66" xlink:href="1/img/3.png" />
<text x="1009" y="66" dx="0,-0.1,-0.1,0,-0.1,-0.1" class="s1_1">Server</text>
<image preserveAspectRatio="none" x="1090" y="28" width="57" height="66" xlink:href="1/img/4.png" />
<text x="1108" y="66" class="s1_1">2</text>
<path d="M41.7,167.6H185.9V209H41.7Z" class="g5_1" />
<path d="M41.7,167.6H185.9V209H41.7Z" class="g4_1" />
<image preserveAspectRatio="none" x="38" y="162" width="132" height="67" xlink:href="1/img/5.png" />
<text x="57" y="200" dx="0,-0.1,-0.1,0,-0.1,-0.1" class="s1_1">Server</text>
<image preserveAspectRatio="none" x="135" y="162" width="57" height="67" xlink:href="1/img/6.png" />
<text x="154" y="200" class="s1_1">3</text>
<path d="M985.1,167.6h155.2V209H985.1Z" class="g5_1" />
<path d="M985.1,167.6h155.2V209H985.1Z" class="g4_1" />
<image preserveAspectRatio="none" x="986" y="162" width="132" height="67" xlink:href="1/img/7.png" />
<text x="1004" y="200" dx="0,-0.1,-0.1,0,-0.1,-0.1" class="s1_1">Server</text>
<image preserveAspectRatio="none" x="1086" y="162" width="56" height="67" xlink:href="1/img/8.png" />
<text x="1104" y="200" class="s1_1">4</text>
<path d="M187,62.5l76.2,.2Z" class="g6_1" />
<path d="M187,62.5l76.2,.2" class="g7_1" />
<path d="M185.9,188.3l74.2,1.2Z" class="g6_1" />
<path d="M185.9,188.3l74.2,1.2" class="g7_1" />
<path d="M894,57l94.9,-2.7Z" class="g6_1" />
<path d="M894,57l94.9,-2.7" class="g7_1" />
<path d="M899.9,186.8l85.2,1.5Z" class="g6_1" />
<path d="M899.9,186.8l85.2,1.5" class="g7_1" />
<path d="M301.7,57.2l20.9,45.4Z" class="g6_1" />
<path d="M301.7,57.2l20.9,45.4" class="g7_1" />
<path d="M304.6,185.8l19.5,-38.1Z" class="g6_1" />
<path d="M304.6,185.8l19.5,-38.1" class="g7_1" />
<path d="M899,150.7l.9,-63Z" class="g6_1" />
<path d="M899,150.7l.9,-63" class="g7_1" />
<path d="M806.5,141.3l57.4,42.8Z" class="g6_1" />
<path d="M806.5,141.3l57.4,42.8" class="g7_1" />
<path d="M385.7,124l24,1Z" class="g6_1" />
<path d="M385.7,124l24,1" class="g8_1" />
<path d="M638,100.3L589.9,65.2Z" class="g6_1" />
<path d="M638,100.3L589.9,65.2" class="g7_1" />
<path d="M589.3,190.4L638,147.7Z" class="g6_1" />
<path d="M589.3,190.4L638,147.7" class="g7_1" />
<path d="M313.8,124c0,-18.5,15.7,-33.5,35.1,-33.5c19.4,0,35.1,15,35.1,33.5c0,18.5,-15.7,33.5,-35.1,33.5c-19.4,0,-35.1,-15,-35.1,-33.5Z" class="g6_1" />
<path d="M313.8,124c0,-18.5,15.7,-33.5,35.1,-33.5c19.4,0,35.1,15,35.1,33.5c0,18.5,-15.7,33.5,-35.1,33.5c-19.4,0,-35.1,-15,-35.1,-33.5Z" class="g4_1" />
<text x="329" y="131" dx="0,-0.1" class="s1_1">sw</text>
<text x="368" y="137" class="s2_1">3</text>
<path d="M231.6,59.6c0,-18.4,15.8,-33.4,35.2,-33.4c19.4,0,35.1,15,35.1,33.4c0,18.5,-15.7,33.5,-35.1,33.5c-19.4,0,-35.2,-15,-35.2,-33.5Z" class="g6_1" />
<path d="M231.6,59.6c0,-18.4,15.8,-33.4,35.2,-33.4c19.4,0,35.1,15,35.1,33.4c0,18.5,-15.7,33.5,-35.1,33.5c-19.4,0,-35.2,-15,-35.2,-33.5Z" class="g4_1" />
<text x="241" y="67" dx="0,-0.1" class="s1_1">sw</text>
<text x="280" y="74" class="s2_1">1</text>
<path d="M409.7,125c0,-18.5,15.7,-33.5,35.1,-33.5c19.4,0,35.2,15,35.2,33.5c0,18.5,-15.8,33.5,-35.2,33.5c-19.4,0,-35.1,-15,-35.1,-33.5Z" class="g6_1" />
<path d="M409.7,125c0,-18.5,15.7,-33.5,35.1,-33.5c19.4,0,35.2,15,35.2,33.5c0,18.5,-15.8,33.5,-35.2,33.5c-19.4,0,-35.1,-15,-35.1,-33.5Z" class="g4_1" />
<text x="421" y="131" dx="0,-0.1" class="s1_1">sw</text>
<text x="460" y="138" class="s2_1">4</text>
<path d="M519.6,65.2c0,-18.5,15.7,-33.4,35.1,-33.4c19.4,0,35.2,14.9,35.2,33.4c0,18.5,-15.8,33.5,-35.2,33.5c-19.4,0,-35.1,-15,-35.1,-33.5Z" class="g6_1" />
<path d="M519.6,65.2c0,-18.5,15.7,-33.4,35.1,-33.4c19.4,0,35.2,14.9,35.2,33.4c0,18.5,-15.8,33.5,-35.2,33.5c-19.4,0,-35.1,-15,-35.1,-33.5Z" class="g4_1" />
<text x="529" y="71" dx="0,-0.1" class="s1_1">sw</text>
<text x="568" y="78" class="s2_1">6</text>
<path d="M520,188.1c0,-18.4,15.7,-33.4,35.1,-33.4c19.5,0,35.2,15,35.2,33.4c0,18.5,-15.7,33.5,-35.2,33.5c-19.4,0,-35.1,-15,-35.1,-33.5Z" class="g6_1" />
<path d="M520,188.1c0,-18.4,15.7,-33.4,35.1,-33.4c19.5,0,35.2,15,35.2,33.4c0,18.5,-15.7,33.5,-35.2,33.5c-19.4,0,-35.1,-15,-35.1,-33.5Z" class="g4_1" />
<text x="531" y="205" dx="0,-0.1" class="s1_1">sw</text>
<text x="570" y="211" class="s2_1">4</text>
<path d="M744.8,118C744.8,99.9,761,85.1,781,85.1c19.9,0,36.1,14.8,36.1,32.9c0,18.2,-16.2,32.9,-36.1,32.9c-20,0,-36.2,-14.7,-36.2,-32.9Z" class="g6_1" />
<path d="M744.8,118C744.8,99.9,761,85.1,781,85.1c19.9,0,36.1,14.8,36.1,32.9c0,18.2,-16.2,32.9,-36.1,32.9c-20,0,-36.2,-14.7,-36.2,-32.9Z" class="g4_1" />
<text x="755" y="124" dx="0,-0.1" class="s1_1">sw</text>
<text x="794" y="131" class="s2_1">5</text>
<path d="M864.8,54.2c0,-18.4,15.7,-33.4,35.1,-33.4c19.5,0,35.2,15,35.2,33.4c0,18.5,-15.7,33.5,-35.2,33.5c-19.4,0,-35.1,-15,-35.1,-33.5Z" class="g6_1" />
<path d="M864.8,54.2c0,-18.4,15.7,-33.4,35.1,-33.4c19.5,0,35.2,15,35.2,33.4c0,18.5,-15.7,33.5,-35.2,33.5c-19.4,0,-35.1,-15,-35.1,-33.5Z" class="g4_1" />
<text x="873" y="61" dx="0,-0.1" class="s1_1">sw</text>
<text x="912" y="68" class="s2_1">3</text>
<path d="M863.9,184.1c0,-18.5,15.7,-33.4,35.1,-33.4c19.4,0,35.1,14.9,35.1,33.4c0,18.5,-15.7,33.5,-35.1,33.5c-19.4,0,-35.1,-15,-35.1,-33.5Z" class="g6_1" />
<path d="M863.9,184.1c0,-18.5,15.7,-33.4,35.1,-33.4c19.4,0,35.1,14.9,35.1,33.4c0,18.5,-15.7,33.5,-35.1,33.5c-19.4,0,-35.1,-15,-35.1,-33.5Z" class="g4_1" />
<text x="874" y="192" dx="0,-0.1" class="s1_1">sw</text>
<text x="914" y="198" class="s2_1">4</text>
<text x="56" y="108" class="s3_1">10.0.1.101</text>
<text x="1010" y="97" dx="0,0,0,0,0,0,0,0.1,0,0" class="s3_1">10.0.1.201</text>
<text x="56" y="159" class="s3_1">10.0.1.102</text>
<text x="1010" y="163" dx="0,0,0,0,0,0,0,0.1,0,0" class="s3_1">10.0.1.202</text>
<text x="511" y="275" dx="0,-0.2,0,-0.9,-0.2,-0.1,-0.7" class="s4_1">UK Army</text>
<text x="90" y="275" dx="0,-0.2,0,-0.9,-0.2,-0.1,-0.7,0,-0.9,-0.1,-0.1,0,-0.1,0,-0.1,-0.1,0,-0.9" class="s4_1">US Army Division 1</text>
<path d="M234.5,188.3c0,-18.5,15.8,-33.5,35.2,-33.5c19.4,0,35.1,15,35.1,33.5c0,18.5,-15.7,33.5,-35.1,33.5c-19.4,0,-35.2,-15,-35.2,-33.5Z" class="g6_1" />
<path d="M234.5,188.3c0,-18.5,15.8,-33.5,35.2,-33.5c19.4,0,35.1,15,35.1,33.5c0,18.5,-15.7,33.5,-35.1,33.5c-19.4,0,-35.2,-15,-35.2,-33.5Z" class="g4_1" />
<text x="244" y="196" dx="0,-0.1" class="s1_1">sw</text>
<text x="283" y="203" class="s2_1">2</text>
<path d="M806.5,92.9L864.8,54.2Z" class="g6_1" />
<path d="M806.5,92.9L864.8,54.2" class="g7_1" />
<path d="M627.7,124c0,-18.5,15.7,-33.5,35.1,-33.5c19.4,0,35.1,15,35.1,33.5c0,18.5,-15.7,33.5,-35.1,33.5c-19.4,0,-35.1,-15,-35.1,-33.5Z" class="g6_1" />
<path d="M627.7,124c0,-18.5,15.7,-33.5,35.1,-33.5c19.4,0,35.1,15,35.1,33.5c0,18.5,-15.7,33.5,-35.1,33.5c-19.4,0,-35.1,-15,-35.1,-33.5Z" class="g4_1" />
<text x="639" y="130" dx="0,-0.1" class="s1_1">sw</text>
<text x="678" y="137" class="s2_1">4</text>
<path d="M520.7,179.8L472.6,144.6Z" class="g6_1" />
<path d="M520.7,179.8L472.6,144.6" class="g7_1" />
<path d="M466.8,98.6L519.6,65.2Z" class="g6_1" />
<path d="M466.8,98.6L519.6,65.2" class="g7_1" />
<path d="M696.6,118.2l48.2,-.2Z" class="g6_1" />
<path d="M696.6,118.2l48.2,-.2" class="g8_1" />
<text x="852" y="272" dx="0,-0.2,0,-0.9,-0.2,-0.1,-0.7,0,-0.9,-0.1,-0.1,0,-0.1,0,-0.1,-0.1,0,-0.9" class="s4_1">US Army Division 2</text>
<path d="M162,22.3C207.7,15.4,253.4,8.5,283.6,18.4c30.2,10,34.3,52.2,59.6,63.5C368.4,93.1,402.9,95,435,85.7c32.2,-9.2,71.9,-53,101,-59.5c29.1,-6.5,48.3,9.7,73.7,20.7c25.5,11,56.1,36.7,79,45.3c22.8,8.6,32.1,14.5,58.2,6.5c26.1,-8,72.3,-40.4,98.4,-54.4c26.1,-14,24.8,-25.6,58.2,-29.7c33.4,-4.1,142.4,5.1,142.4,5.1" class="g9_1" />
<path d="M166.3,214.7c45.7,8.2,91.4,16.3,121.6,4.6c30.2,-11.8,34.3,-61.9,59.6,-75.2c25.2,-13.3,59.7,-15.6,91.9,-4.6c32.1,11,71.8,62.9,100.9,70.6c29.1,7.6,48.3,-11.5,73.8,-24.6c25.4,-13,56,-43.4,78.9,-53.6c22.9,-10.3,32.1,-17.2,58.2,-7.7c26.1,9.5,72.3,47.8,98.4,64.4c26.1,16.6,24.8,30.4,58.2,35.3c33.5,4.8,142.4,-6.2,142.4,-6.2" class="g10_1" />


<!-- Any embedded fonts defined here -->
<style type="text/css" ><![CDATA[

@font-face {
	font-family: Arial-BoldMT_b;
	src: url("fonts/Arial-BoldMT_b.woff") format("woff");
}

@font-face {
	font-family: Calibri-Bold_r;
	src: url("fonts/Calibri-Bold_r.woff") format("woff");
}

]]></style>

</svg>
