<?xml version="1.0" encoding="UTF-8" standalone="no"?>
<!DOCTYPE svg PUBLIC "-//W3C//DTD SVG 1.1//EN"
"http://www.w3.org/Graphics/SVG/1.1/DTD/svg11.dtd">


<!-- Page 1 -->
<svg x="0" y="0" width="880" height="385" viewBox="0 0 880 385" version="1.1" xmlns="http://www.w3.org/2000/svg" xmlns:xlink="http://www.w3.org/1999/xlink"
style="display: block;margin-left: auto;margin-right: auto;">
<defs>
<clipPath id="c0_1"><path d="M-160.3,522.5V-137.4H1012.9V522.5Z" /></clipPath>

<style type="text/css"><![CDATA[
text { white-space: pre; }
path, image { pointer-events: none; }

.s1_1{
font-size: 29.54px;
font-family: Arial-BoldMT_b;
fill: #FFFFFF;
}
.s2_1{
font-size: 29.54px;
font-family: CourierNewPS-BoldMT_q;
fill: #000000;
}
.s3_1{
font-size: 19.35px;
font-family: CourierNewPS-BoldMT_q;
fill: #000000;
}
.s4_1{
font-size: 24.44px;
font-family: Calibri-Bold_s;
fill: #000000;
}
.s5_1{
font-size: 19.35px;
font-family: Arial-BoldMT_b;
fill: #FFFFFF;
}
.s6_1{
font-size: 29.54px;
font-family: Calibri-Bold_s;
fill: #000000;
}

.g0_1{
fill: #FFFFFF;
}
.g1_1{
fill: #E7E6E6;
fill-opacity: 0.45880002;
}
.g2_1{
fill: none;
stroke: #2F528F;
stroke-width: 1.2222222;
stroke-linecap: butt;
stroke-linejoin: miter;
stroke-miterlimit: 8;
}
.g3_1{
fill: #4472C4;
}
.g4_1{
fill: none;
stroke: #000000;
stroke-width: 0.9166667;
stroke-linecap: butt;
stroke-linejoin: round;
}
.g5_1{
fill: #385723;
}
.g6_1{
fill: #2E75B6;
}
.g7_1{
fill: none;
stroke: #000000;
stroke-width: 2.4444444;
stroke-linecap: butt;
stroke-linejoin: round;
}
.g8_1{
fill: none;
stroke: #660066;
stroke-width: 0.9166667;
stroke-linecap: butt;
stroke-linejoin: round;
}
.g9_1{
fill: #548235;
}
.g10_1{
fill: #FF0000;
}

]]></style>

</defs>
<path d="M0,0
L0,385
L880,385
L880,0 Z " 
fill="#FFFFFF" stroke="none" />
<g clip-path="url(#c0_1)">
<path d="M-160.3,-137.4H1012.9V522.5H-160.3Z" class="g0_1" />
</g>
<path d="M151.5,178.3C151.5,95,279,27.4,436.2,27.4c157.2,0,284.7,67.6,284.7,150.9c0,83.4,-127.5,151,-284.7,151C279,329.3,151.5,261.7,151.5,178.3Z" class="g1_1" />
<path d="M151.5,178.3C151.5,95,279,27.4,436.2,27.4c157.2,0,284.7,67.6,284.7,150.9c0,83.4,-127.5,151,-284.7,151C279,329.3,151.5,261.7,151.5,178.3Z" class="g2_1" />
<path d="M205.6,112.5C205.6,94,221.3,79,240.7,79c19.4,0,35.1,15,35.1,33.5c0,18.5,-15.7,33.5,-35.1,33.5c-19.4,0,-35.1,-15,-35.1,-33.5Z" class="g3_1" />
<path d="M205.6,112.5C205.6,94,221.3,79,240.7,79c19.4,0,35.1,15,35.1,33.5c0,18.5,-15.7,33.5,-35.1,33.5c-19.4,0,-35.1,-15,-35.1,-33.5Z" class="g4_1" />
<path d="M199.5,243.8c0,-18.4,15.8,-33.4,35.2,-33.4c19.4,0,35.1,15,35.1,33.4c0,18.5,-15.7,33.5,-35.1,33.5c-19.4,0,-35.2,-15,-35.2,-33.5Z" class="g3_1" />
<path d="M199.5,243.8c0,-18.4,15.8,-33.4,35.2,-33.4c19.4,0,35.1,15,35.1,33.4c0,18.5,-15.7,33.5,-35.1,33.5c-19.4,0,-35.2,-15,-35.2,-33.5Z" class="g4_1" />
<path d="M3.9,91.1H149.2v41.5H3.9Z" class="g5_1" />
<path d="M3.9,91.1H149.2v41.5H3.9Z" class="g4_1" />
<text x="18" y="124" dx="0,-0.1,-0.1,0,-0.1,-0.1" class="s1_1">Server</text>
<text x="118" y="124" class="s1_1">1</text>
<path d="M719.6,88.5H876.2V130H719.6Z" class="g5_1" />
<path d="M719.6,88.5H876.2V130H719.6Z" class="g4_1" />
<text x="739" y="121" dx="0,-0.1,-0.1,0,-0.1,-0.1" class="s1_1">Server</text>
<text x="839" y="121" class="s1_1">2</text>
<path d="M3.9,223.8H148.1v41.5H3.9Z" class="g6_1" />
<path d="M3.9,223.8H148.1v41.5H3.9Z" class="g4_1" />
<text x="19" y="256" dx="0,-0.1,-0.1,0,-0.1,-0.1" class="s1_1">Server</text>
<text x="116" y="256" class="s1_1">3</text>
<path d="M720.9,222.6H876.2V264H720.9Z" class="g6_1" />
<path d="M720.9,222.6H876.2V264H720.9Z" class="g4_1" />
<text x="740" y="255" dx="0,-0.1,-0.1,0,-0.1,-0.1" class="s1_1">Server</text>
<text x="840" y="255" class="s1_1">4</text>
<path d="M300.9,181.4c0,-18.5,15.8,-33.5,35.2,-33.5c19.4,0,35.1,15,35.1,33.5c0,18.5,-15.7,33.5,-35.1,33.5c-19.4,0,-35.2,-15,-35.2,-33.5Z" class="g3_1" />
<path d="M300.9,181.4c0,-18.5,15.8,-33.5,35.2,-33.5c19.4,0,35.1,15,35.1,33.5c0,18.5,-15.7,33.5,-35.1,33.5c-19.4,0,-35.2,-15,-35.2,-33.5Z" class="g4_1" />
<path d="M472.4,181c0,-18.2,16.1,-32.9,36.1,-32.9c20,0,36.1,14.7,36.1,32.9c0,18.2,-16.1,32.9,-36.1,32.9c-20,0,-36.1,-14.7,-36.1,-32.9Z" class="g3_1" />
<path d="M472.4,181c0,-18.2,16.1,-32.9,36.1,-32.9c20,0,36.1,14.7,36.1,32.9c0,18.2,-16.1,32.9,-36.1,32.9c-20,0,-36.1,-14.7,-36.1,-32.9Z" class="g4_1" />
<path d="M387.4,120.2c0,-18.5,15.8,-33.4,35.2,-33.4c19.4,0,35.1,14.9,35.1,33.4c0,18.5,-15.7,33.5,-35.1,33.5c-19.4,0,-35.2,-15,-35.2,-33.5Z" class="g3_1" />
<path d="M387.4,120.2c0,-18.5,15.8,-33.4,35.2,-33.4c19.4,0,35.1,14.9,35.1,33.4c0,18.5,-15.7,33.5,-35.1,33.5c-19.4,0,-35.2,-15,-35.2,-33.5Z" class="g4_1" />
<path d="M150.1,111.9l56.3,.6Z" class="g3_1" />
<path d="M150.1,111.9l56.3,.6" class="g7_1" />
<path d="M148.1,244.5l51.4,-.7Z" class="g3_1" />
<path d="M148.1,244.5l51.4,-.7" class="g7_1" />
<path d="M624.6,112l95,-2.7Z" class="g3_1" />
<path d="M624.6,112l95,-2.7" class="g7_1" />
<path d="M635.1,251.4l85.8,-8.1Z" class="g3_1" />
<path d="M635.1,251.4l85.8,-8.1" class="g7_1" />
<path d="M564.8,250.7c0,-18.5,15.8,-33.5,35.2,-33.5c19.4,0,35.1,15,35.1,33.5c0,18.5,-15.7,33.5,-35.1,33.5c-19.4,0,-35.2,-15,-35.2,-33.5Z" class="g3_1" />
<path d="M564.8,250.7c0,-18.5,15.8,-33.5,35.2,-33.5c19.4,0,35.1,15,35.1,33.5c0,18.5,-15.7,33.5,-35.1,33.5c-19.4,0,-35.2,-15,-35.2,-33.5Z" class="g4_1" />
<path d="M265.5,136.2l45.7,21.5Z" class="g3_1" />
<path d="M265.5,136.2l45.7,21.5" class="g7_1" />
<path d="M259.5,220.2l51.7,-15.1Z" class="g3_1" />
<path d="M259.5,220.2l51.7,-15.1" class="g7_1" />
<path d="M534.1,157.7l45.7,-22.6Z" class="g3_1" />
<path d="M534.1,157.7l45.7,-22.6" class="g7_1" />
<path d="M534.1,204.3l41,22.7Z" class="g3_1" />
<path d="M534.1,204.3l41,22.7" class="g7_1" />
<path d="M360.9,205.1l33.4,14.4Z" class="g3_1" />
<path d="M360.9,205.1l33.4,14.4" class="g7_1" />
<path d="M360.9,157.7l36.8,-13.8Z" class="g3_1" />
<path d="M360.9,157.7l36.8,-13.8" class="g7_1" />
<path d="M483,157.7L447.4,143.9Z" class="g3_1" />
<path d="M483,157.7L447.4,143.9" class="g7_1" />
<path d="M384,243.2c0,-18.5,15.7,-33.5,35.1,-33.5c19.4,0,35.1,15,35.1,33.5c0,18.5,-15.7,33.4,-35.1,33.4C399.7,276.6,384,261.7,384,243.2Z" class="g3_1" />
<path d="M384,243.2c0,-18.5,15.7,-33.5,35.1,-33.5c19.4,0,35.1,15,35.1,33.5c0,18.5,-15.7,33.4,-35.1,33.4C399.7,276.6,384,261.7,384,243.2Z" class="g4_1" />
<path d="M444,219.5l39,-15.2Z" class="g3_1" />
<path d="M444,219.5l39,-15.2" class="g7_1" />
<text x="163" y="145" class="s2_1">l</text>
<text x="181" y="151" class="s3_1">1</text>
<text x="257" y="164" class="s2_1">l</text>
<text x="274" y="170" class="s3_1">2</text>
<text x="559" y="171" class="s2_1">l</text>
<text x="577" y="177" class="s3_1">5</text>
<text x="376" y="175" class="s2_1">l</text>
<text x="393" y="181" class="s3_1">3</text>
<text x="436" y="177" class="s2_1">l</text>
<text x="453" y="184" class="s3_1">4</text>
<text x="277" y="238" class="s2_1">l</text>
<text x="295" y="245" class="s3_1">8</text>
<text x="521" y="239" class="s2_1">l</text>
<text x="539" y="246" dx="0,0.2" class="s3_1">11</text>
<text x="349" y="237" class="s2_1">l</text>
<text x="367" y="243" class="s3_1">9</text>
<text x="463" y="241" class="s2_1">l</text>
<text x="481" y="248" dx="0,0.2" class="s3_1">10</text>
<path d="M569.5,111.4C569.5,92.9,585.3,78,604.7,78c19.4,0,35.1,14.9,35.1,33.4c0,18.5,-15.7,33.5,-35.1,33.5c-19.4,0,-35.2,-15,-35.2,-33.5Z" class="g3_1" />
<path d="M569.5,111.4C569.5,92.9,585.3,78,604.7,78c19.4,0,35.1,14.9,35.1,33.4c0,18.5,-15.7,33.5,-35.1,33.5c-19.4,0,-35.2,-15,-35.2,-33.5Z" class="g4_1" />
<text x="650" y="144" class="s2_1">l</text>
<text x="668" y="151" class="s3_1">6</text>
<path d="M307.2,52.3H549.3V90.8H307.2Z" class="g8_1" />
<text x="316" y="79" dx="0,-0.3,0,0,0,-0.6,0,0,0,0,0,-0.6,0,0,0,-0.6,0,0,-0.1" class="s4_1">Each link: 100 Mbps</text>
<text x="215" y="250" dx="0,-0.1" class="s1_1">sw</text>
<text x="254" y="257" class="s5_1">2</text>
<text x="215" y="120" dx="0,-0.1" class="s1_1">sw</text>
<text x="254" y="127" class="s5_1">1</text>
<text x="312" y="187" dx="0,-0.1" class="s1_1">sw</text>
<text x="351" y="194" class="s5_1">5</text>
<text x="397" y="126" dx="0,-0.1" class="s1_1">sw</text>
<text x="436" y="133" class="s5_1">6</text>
<text x="395" y="248" dx="0,-0.1" class="s1_1">sw</text>
<text x="434" y="255" class="s5_1">7</text>
<text x="482" y="187" dx="0,-0.1" class="s1_1">sw</text>
<text x="521" y="194" class="s5_1">8</text>
<text x="577" y="118" dx="0,-0.1" class="s1_1">sw</text>
<text x="616" y="125" class="s5_1">3</text>
<text x="575" y="258" dx="0,-0.1" class="s1_1">sw</text>
<text x="615" y="265" class="s5_1">4</text>
<path d="M661.9,82.2c.6,.1,1.2,.3,1.7,.8l20.2,21.6l-29,5.7c-1.4,.3,-2.7,-.6,-2.9,-1.9c-.3,-1.3,.6,-2.6,1.9,-2.9l15,-2.9l-.5,-.2l-3.1,-.8l-3.3,-.9l-3.5,-1l-7.5,-1.8L643,96.1l-8.2,-1.6l-8.4,-1.3l-8.3,-1.1l-8,-.5l-7.6,-.1l-7.1,.5l-3.1,.6l-3,.6l-2.7,.9l-2.4,1.1l-2.4,1.3l-2.3,1.4l-4.7,3.5l-4.7,4.1l-4.6,4.5l-4.5,4.9l-4.5,5.1l-8.9,10.5l-4.5,5.1l-4.5,4.8l-4.5,4.5l-4.6,3.9l-4.7,3.4l-2.4,1.4l-2.4,1.2l-2.5,.9l-2.6,.8l-2.6,.4l-2.6,.1l-2.7,-.2l-2.6,-.6l-2.6,-.9l-2.4,-1.2l-2.5,-1.4L494.6,151l-2.4,-1.9L489.9,147l-4.6,-4.7l-4.5,-5.1l-4.5,-5.5L471.8,126l-4.6,-5.6L462.5,115l-4.7,-5l-4.9,-4.6l-2.4,-2L448,101.6L445.5,100L443,98.7l-2.6,-1.1l-2.5,-.9l-2.6,-.6l-2.7,-.2h-2.8l-2.9,.3l-3,.7l-3.2,.8l-3.3,1.2l-3.4,1.3l-3.4,1.6l-3.5,1.8l-7.3,4l-7.5,4.6l-7.5,5l-7.7,5.1l-7.6,5.1l-7.6,5l-7.5,4.7l-7.4,4.1l-3.6,1.9l-3.5,1.7l-3.5,1.5l-3.5,1.2l-3.3,1l-3.4,.7l-3.2,.4l-3.2,.1l-3,-.3l-2.9,-.6l-2.8,-1l-2.7,-1.2l-2.6,-1.4l-2.5,-1.7L301,141.7l-2.3,-2.1l-4.3,-4.5l-4.1,-4.9l-3.9,-5.3l-3.8,-5.4l-3.7,-5.3L275.2,109l-3.7,-4.9l-3.7,-4.4l-4,-3.8l-1.9,-1.5l-2,-1.4l-2.1,-1.2l-2,-.9l-2.2,-.6l-2.2,-.5L249,89.7h-2.6l-2.8,.2l-2.9,.5l-6.4,1.4l-6.8,2.1l-7,2.6l-7.2,3.1L206,103l-7.2,3.6l-6.9,3.7l-6.7,3.7l-6.2,3.6l-5.6,3.4l-2.5,1.5l-2.4,1.5l-2.1,1.3l-2,1.3l-1.7,1.1l-1.4,.9l-1.3,.8l-.9,.6l-2.6,-4.2l.9,-.5l1.2,-.8l1.5,-1l1.7,-1.1l2,-1.2l2.1,-1.4l2.4,-1.4l2.6,-1.6l5.6,-3.4l6.3,-3.6l6.7,-3.7l7,-3.8l7.3,-3.7l7.4,-3.4L218.6,92l7.2,-2.7l7.1,-2.1l6.7,-1.6l3.3,-.5l3.1,-.3h2.9l2.9,.2l2.7,.4l2.7,.9l2.6,1.1l2.4,1.3l2.4,1.6l2.3,1.8l4.2,4.1l4.1,4.7l3.9,5.1l3.8,5.3l3.8,5.5l3.7,5.3l3.8,5.1l3.9,4.8l4.1,4.2l2,1.8l2.2,1.7l2.1,1.4l2.2,1.3l2.3,1l2.4,.7l2.4,.5l2.5,.2l2.6,-.1l2.7,-.3l2.9,-.7l3.1,-.9l3.1,-1.1l3.3,-1.4l3.3,-1.6l3.5,-1.8l7.1,-4.1l7.4,-4.6l7.5,-4.9l7.6,-5.1l7.6,-5.1l7.7,-5l7.5,-4.6l7.5,-4.2l3.7,-1.8L412,95.8l3.6,-1.5l3.5,-1.2l3.4,-1l3.4,-.7l3.4,-.4h3.2l3.2,.3l3.2,.6l3,1l3,1.3l2.9,1.5l2.8,1.8l2.7,2l2.7,2.1l5.1,4.8l5,5.3l4.8,5.5l4.7,5.8l4.5,5.6l4.5,5.4l4.4,5.1l4.4,4.4l2.1,2l2.1,1.7l2.2,1.5l2.1,1.2l2,1l2.1,.7l2,.4l2,.2l2,-.2l2.1,-.4l2,-.6l2.1,-.8l2.1,-1l2.1,-1.3l4.2,-3l4.3,-3.7l4.3,-4.3l4.3,-4.7l4.4,-4.9l8.9,-10.4l4.5,-5.2l4.6,-5l4.8,-4.7l4.8,-4.3l5,-3.7l2.7,-1.7l2.6,-1.4l2.9,-1.3l3.1,-1l3.3,-.8l3.5,-.6l7.5,-.6l8,.1l8.4,.6l8.5,1l8.5,1.4l8.4,1.6l8.1,1.8l7.6,1.9l3.5,.9l3.4,.9l3.1,.9l1.4,.4L660,86.3c-.9,-.9,-.9,-2.5,.1,-3.4c.5,-.5,1.2,-.7,1.8,-.7Z" class="g9_1" />
<path d="M425.9,94.8l3,.1l3,.3L435,96l3.1,1.1l3,1.5l3,1.7l3.1,2.1l3,2.4l2.9,2.5l3,2.8l3,3l2.9,3.2l5.9,6.8l5.9,7.4l5.8,7.6L491,153.7l5.5,7.7l5.4,7.2l5.3,6.8l2.6,3.2l2.5,2.9l2.4,2.8l2.4,2.5l2.4,2.2l2.2,2l4.5,3.8l4.2,3.8l3.9,3.7l3.7,3.6l3.5,3.3l3.3,3L548,215l3.2,2.3l3.1,1.9l3.1,1.5l3,.9l3.2,.5l3.5,-.1l4,-.7l4.1,-1.3l2.2,-.9l2.4,-1.1l2.8,-1.2l3.3,-1l3.6,-.8l3.8,-.6l4.1,-.3l4.3,-.2h4.5l4.7,.1l9.7,.7l10.1,1.2l10.2,1.5l10.2,1.7l9.8,2l4.7,.9l4.5,1l4.4,1l4.1,1l3.8,.9l3.6,.9l1.2,.3L675.8,215.9c-1,-.9,-1,-2.5,-.1,-3.5c1,-.9,2.5,-.9,3.5,0l21.1,20.7l-28.7,7c-1.3,.3,-2.6,-.5,-3,-1.8c-.3,-1.3,.5,-2.6,1.8,-3l15,-3.6l-.6,-.2l-3.5,-.8l-3.8,-1l-4.1,-.9l-4.3,-1l-4.5,-1l-4.7,-.9L650.2,224l-10,-1.8l-10,-1.5l-9.9,-1.1l-9.5,-.7l-4.6,-.1h-4.3l-4.1,.1l-3.8,.4l-3.5,.5l-3.2,.6l-2.8,.9l-2.6,1.1l-2.6,1.2l-2.6,1.1l-4.8,1.5l-4.1,.7c-.2,0,-.3,0,-.4,0h-3.9c-.1,0,-.3,0,-.4,0l-3.6,-.5c-.2,0,-.3,-.1,-.4,-.1l-3.8,-1.2l-3.6,-1.7l-3.5,-2.2l-3.3,-2.5l-3.4,-2.9l-3.4,-3.1l-3.5,-3.3L531,205.9l-3.9,-3.7L523,198.5l-4.5,-3.8l-2.4,-2.2l-2.5,-2.4l-2.5,-2.6l-2.5,-2.8L506,181.6l-2.7,-3.2L498,171.6l-5.4,-7.4L487,156.6L475.7,141.1L470,133.5l-5.8,-7.2l-5.7,-6.6l-2.9,-3.1l-2.8,-2.9L449.9,111l-2.8,-2.4l-2.7,-2.2l-2.7,-1.8L439,103l-2.6,-1.3l-2.6,-1l-2.5,-.6l-2.5,-.4h-2.5l-2.5,.2l-2.5,.4l-2.5,.7l-2.5,.9l-2.5,1.2l-2.6,1.3l-2.6,1.5l-2.5,1.7l-5.2,4l-5.3,4.5l-5.3,5l-5.4,5.3l-5.5,5.5L368.2,143l-5.8,5.5l-5.9,5.1l-6.2,4.8l-6.2,4.3l-6.3,3.9l-6.6,4.1l-6.7,4.1l-6.9,4.2l-14.2,8.3L289,195.6l-14.4,8.1l-14.1,7.6l-6.9,3.6l-6.7,3.4l-6.4,3.3l-6.3,3l-6.3,2.9l-6.5,2.8l-13.2,5.1L195,240.1l-6.4,2.1l-6.3,2l-5.9,1.9l-5.5,1.8l-5.1,1.7l-4.6,1.5l-4.1,1.4l-3.3,1.3l-1.4,.6l-1.2,.5l-1,.5l-.8,.5l-2.5,-4.3l.9,-.5l1.2,-.6l1.4,-.6l1.5,-.6l3.5,-1.4l4.2,-1.4l4.6,-1.6l5.2,-1.6l5.5,-1.8l6,-1.9l6.1,-2l6.4,-2.2l13.2,-4.6l13.1,-5.1L226,223l6.2,-2.8l6.1,-3l6.5,-3.2l6.6,-3.5l6.8,-3.5l14.1,-7.6l14.3,-8.1l14.3,-8.2l14.2,-8.4l6.9,-4.1l6.7,-4.1l6.5,-4l6.4,-4l6,-4.1l5.8,-4.6l5.8,-5l5.6,-5.3L376,128.4l5.4,-5.5l5.4,-5.3l5.5,-5.1l5.4,-4.6l5.4,-4.2l2.8,-1.8l2.8,-1.7l2.8,-1.5l2.8,-1.2l2.9,-1.1l2.8,-.8l3,-.5Z" class="g10_1" />
<text x="17" y="79" class="s4_1">10.0.1.101</text>
<text x="740" y="77" dx="0,0,0,0,0,0,0,0.1,0,0" class="s4_1">10.0.1.201</text>
<text x="22" y="297" class="s4_1">10.0.1.102</text>
<text x="740" y="292" dx="0,0,0,0,0,0,0,0.1,0,0" class="s4_1">10.0.1.202</text>
<text x="250" y="376" dx="0,-0.2,0,-0.9,-0.2,-0.1,-0.7,0,-0.9,-0.1,-0.1,0,-0.8,-0.1,-0.3,0,-0.7,-0.1,-0.3,0,-0.1,-0.1,-0.1,0,-0.1,-0.4" class="s6_1">UK Army SDC Infrastructure</text>
<text x="22" y="30" dx="0,-0.2,0,-0.9,-0.2,-0.1,-0.7" class="s6_1">US Army</text>
<text x="729" y="30" dx="0,-0.2,0,-0.9,-0.2,-0.1,-0.7" class="s6_1">US Army</text>


<!-- Any embedded fonts defined here -->
<style type="text/css" ><![CDATA[

@font-face {
	font-family: Calibri-Bold_s;
	src: url("fonts/Calibri-Bold_s.woff") format("woff");
}

@font-face {
	font-family: CourierNewPS-BoldMT_q;
	src: url("fonts/CourierNewPS-BoldMT_q.woff") format("woff");
}

@font-face {
	font-family: Arial-BoldMT_b;
	src: url("fonts/Arial-BoldMT_b.woff") format("woff");
}

]]></style>

</svg>
