<?xml version="1.0" encoding="UTF-8" standalone="no"?>
<!DOCTYPE svg PUBLIC "-//W3C//DTD SVG 1.1//EN"
"http://www.w3.org/Graphics/SVG/1.1/DTD/svg11.dtd">


<!-- Page 1 -->
<svg x="0" y="0" width="880" height="385" viewBox="0 0 880 385" version="1.1" xmlns="http://www.w3.org/2000/svg" xmlns:xlink="http://www.w3.org/1999/xlink"
style="display: block;margin-left: auto;margin-right: auto;">
<defs>
<clipPath id="c0_1"><path d="M-160.3,522.5V-137.4H1012.9V522.5Z" /></clipPath>

<style type="text/css"><![CDATA[
text { white-space: pre; }
path, image { pointer-events: none; }

.s1_1{
font-size: 29.54px;
font-family: Arial-BoldMT_b;
fill: #FFFFFF;
}
.s2_1{
font-size: 29.54px;
font-family: CourierNewPS-BoldMT_q;
fill: #000000;
}
.s3_1{
font-size: 19.35px;
font-family: CourierNewPS-BoldMT_q;
fill: #000000;
}
.s4_1{
font-size: 24.44px;
font-family: Calibri-Bold_s;
fill: #000000;
}
.s5_1{
font-size: 16.30px;
font-family: Calibri-Bold_s;
fill: #000000;
}
.s6_1{
font-size: 19.35px;
font-family: Arial-BoldMT_b;
fill: #FFFFFF;
}
.s7_1{
font-size: 29.54px;
font-family: Calibri-Bold_s;
fill: #000000;
}

.g0_1{
fill: #FFFFFF;
}
.g1_1{
fill: #E7E6E6;
fill-opacity: 0.45880002;
}
.g2_1{
fill: none;
stroke: #2F528F;
stroke-width: 1.2222222;
stroke-linecap: butt;
stroke-linejoin: miter;
stroke-miterlimit: 8;
}
.g3_1{
fill: #4472C4;
}
.g4_1{
fill: none;
stroke: #000000;
stroke-width: 0.9166667;
stroke-linecap: butt;
stroke-linejoin: round;
}
.g5_1{
fill: #385723;
}
.g6_1{
fill: #2E75B6;
}
.g7_1{
fill: none;
stroke: #000000;
stroke-width: 2.4444444;
stroke-linecap: butt;
stroke-linejoin: round;
}
.g8_1{
fill: none;
stroke: #660066;
stroke-width: 0.9166667;
stroke-linecap: butt;
stroke-linejoin: round;
}
.g9_1{
fill: none;
stroke: #FF0000;
stroke-width: 4.888889;
stroke-linecap: butt;
stroke-linejoin: miter;
stroke-miterlimit: 8;
stroke-dasharray: 20,15;
}
.g10_1{
fill: none;
stroke: #70AD47;
stroke-width: 4.888889;
stroke-linecap: butt;
stroke-linejoin: miter;
stroke-miterlimit: 8;
stroke-dasharray: 20,15;
}

]]></style>

</defs>
<path d="M0,0
L0,385
L880,385
L880,0 Z " 
fill="#FFFFFF" stroke="none" />
<g clip-path="url(#c0_1)">
<path d="M-160.3,-137.4H1012.9V522.5H-160.3Z" class="g0_1" />
</g>
<path d="M151.5,186.2C151.5,98.5,279,27.4,436.2,27.4c157.2,0,284.7,71.1,284.7,158.8c0,87.6,-127.5,158.7,-284.7,158.7C279,344.9,151.5,273.8,151.5,186.2Z" class="g1_1" />
<path d="M151.5,186.2C151.5,98.5,279,27.4,436.2,27.4c157.2,0,284.7,71.1,284.7,158.8c0,87.6,-127.5,158.7,-284.7,158.7C279,344.9,151.5,273.8,151.5,186.2Z" class="g2_1" />
<path d="M205.6,112.5C205.6,94,221.3,79,240.7,79c19.4,0,35.1,15,35.1,33.5c0,18.5,-15.7,33.5,-35.1,33.5c-19.4,0,-35.1,-15,-35.1,-33.5Z" class="g3_1" />
<path d="M205.6,112.5C205.6,94,221.3,79,240.7,79c19.4,0,35.1,15,35.1,33.5c0,18.5,-15.7,33.5,-35.1,33.5c-19.4,0,-35.1,-15,-35.1,-33.5Z" class="g4_1" />
<path d="M199.5,243.8c0,-18.4,15.8,-33.4,35.2,-33.4c19.4,0,35.1,15,35.1,33.4c0,18.5,-15.7,33.5,-35.1,33.5c-19.4,0,-35.2,-15,-35.2,-33.5Z" class="g3_1" />
<path d="M199.5,243.8c0,-18.4,15.8,-33.4,35.2,-33.4c19.4,0,35.1,15,35.1,33.4c0,18.5,-15.7,33.5,-35.1,33.5c-19.4,0,-35.2,-15,-35.2,-33.5Z" class="g4_1" />
<path d="M3.9,91.1H149.2v41.5H3.9Z" class="g5_1" />
<path d="M3.9,91.1H149.2v41.5H3.9Z" class="g4_1" />
<image preserveAspectRatio="none" x="0" y="86" width="131" height="66" xlink:href="1/img/1.png" />
<text x="18" y="124" dx="0,-0.1,-0.1,0,-0.1,-0.1" class="s1_1">Server</text>
<image preserveAspectRatio="none" x="99" y="86" width="57" height="66" xlink:href="1/img/2.png" />
<text x="118" y="124" class="s1_1">1</text>
<path d="M719.6,88.5H876.2V130H719.6Z" class="g5_1" />
<path d="M719.6,88.5H876.2V130H719.6Z" class="g4_1" />
<image preserveAspectRatio="none" x="721" y="83" width="132" height="66" xlink:href="1/img/3.png" />
<text x="739" y="121" dx="0,-0.1,-0.1,0,-0.1,-0.1" class="s1_1">Server</text>
<image preserveAspectRatio="none" x="821" y="83" width="56" height="66" xlink:href="1/img/4.png" />
<text x="839" y="121" class="s1_1">2</text>
<path d="M3.9,223.8H148.1v41.5H3.9Z" class="g6_1" />
<path d="M3.9,223.8H148.1v41.5H3.9Z" class="g4_1" />
<image preserveAspectRatio="none" x="1" y="218" width="131" height="67" xlink:href="1/img/5.png" />
<text x="19" y="256" dx="0,-0.1,-0.1,0,-0.1,-0.1" class="s1_1">Server</text>
<image preserveAspectRatio="none" x="98" y="218" width="56" height="67" xlink:href="1/img/6.png" />
<text x="116" y="256" class="s1_1">3</text>
<path d="M720.9,222.6H876.2V264H720.9Z" class="g6_1" />
<path d="M720.9,222.6H876.2V264H720.9Z" class="g4_1" />
<image preserveAspectRatio="none" x="722" y="217" width="132" height="67" xlink:href="1/img/7.png" />
<text x="740" y="255" dx="0,-0.1,-0.1,0,-0.1,-0.1" class="s1_1">Server</text>
<image preserveAspectRatio="none" x="821" y="217" width="57" height="67" xlink:href="1/img/8.png" />
<text x="840" y="255" class="s1_1">4</text>
<path d="M300.9,181.4c0,-18.5,15.8,-33.5,35.2,-33.5c19.4,0,35.1,15,35.1,33.5c0,18.5,-15.7,33.5,-35.1,33.5c-19.4,0,-35.2,-15,-35.2,-33.5Z" class="g3_1" />
<path d="M300.9,181.4c0,-18.5,15.8,-33.5,35.2,-33.5c19.4,0,35.1,15,35.1,33.5c0,18.5,-15.7,33.5,-35.1,33.5c-19.4,0,-35.2,-15,-35.2,-33.5Z" class="g4_1" />
<path d="M472.4,181c0,-18.2,16.1,-32.9,36.1,-32.9c20,0,36.1,14.7,36.1,32.9c0,18.2,-16.1,32.9,-36.1,32.9c-20,0,-36.1,-14.7,-36.1,-32.9Z" class="g3_1" />
<path d="M472.4,181c0,-18.2,16.1,-32.9,36.1,-32.9c20,0,36.1,14.7,36.1,32.9c0,18.2,-16.1,32.9,-36.1,32.9c-20,0,-36.1,-14.7,-36.1,-32.9Z" class="g4_1" />
<path d="M387.4,120.2c0,-18.5,15.8,-33.4,35.2,-33.4c19.4,0,35.1,14.9,35.1,33.4c0,18.5,-15.7,33.5,-35.1,33.5c-19.4,0,-35.2,-15,-35.2,-33.5Z" class="g3_1" />
<path d="M387.4,120.2c0,-18.5,15.8,-33.4,35.2,-33.4c19.4,0,35.1,14.9,35.1,33.4c0,18.5,-15.7,33.5,-35.1,33.5c-19.4,0,-35.2,-15,-35.2,-33.5Z" class="g4_1" />
<path d="M150.1,111.9l56.3,.6Z" class="g3_1" />
<path d="M150.1,111.9l56.3,.6" class="g7_1" />
<path d="M148.1,244.5l51.4,-.7Z" class="g3_1" />
<path d="M148.1,244.5l51.4,-.7" class="g7_1" />
<path d="M624.6,112l95,-2.7Z" class="g3_1" />
<path d="M624.6,112l95,-2.7" class="g7_1" />
<path d="M635.1,251.4l85.8,-8.1Z" class="g3_1" />
<path d="M635.1,251.4l85.8,-8.1" class="g7_1" />
<path d="M564.8,250.7c0,-18.5,15.8,-33.5,35.2,-33.5c19.4,0,35.1,15,35.1,33.5c0,18.5,-15.7,33.5,-35.1,33.5c-19.4,0,-35.2,-15,-35.2,-33.5Z" class="g3_1" />
<path d="M564.8,250.7c0,-18.5,15.8,-33.5,35.2,-33.5c19.4,0,35.1,15,35.1,33.5c0,18.5,-15.7,33.5,-35.1,33.5c-19.4,0,-35.2,-15,-35.2,-33.5Z" class="g4_1" />
<path d="M265.5,136.2l45.7,21.5Z" class="g3_1" />
<path d="M265.5,136.2l45.7,21.5" class="g7_1" />
<path d="M259.5,220.2l51.7,-15.1Z" class="g3_1" />
<path d="M259.5,220.2l51.7,-15.1" class="g7_1" />
<path d="M534.1,157.7l45.7,-22.6Z" class="g3_1" />
<path d="M534.1,157.7l45.7,-22.6" class="g7_1" />
<path d="M534.1,204.3l41,22.7Z" class="g3_1" />
<path d="M534.1,204.3l41,22.7" class="g7_1" />
<path d="M360.9,205.1L389.3,225Z" class="g3_1" />
<path d="M360.9,205.1L389.3,225" class="g7_1" />
<path d="M360.9,157.7l36.8,-13.8Z" class="g3_1" />
<path d="M360.9,157.7l36.8,-13.8" class="g7_1" />
<path d="M483,157.7L447.4,143.9Z" class="g3_1" />
<path d="M483,157.7L447.4,143.9" class="g7_1" />
<path d="M384,231.5c0,-18.4,15.7,-33.4,35.1,-33.4c19.4,0,35.1,15,35.1,33.4c0,18.5,-15.7,33.5,-35.1,33.5C399.7,265,384,250,384,231.5Z" class="g3_1" />
<path d="M384,231.5c0,-18.4,15.7,-33.4,35.1,-33.4c19.4,0,35.1,15,35.1,33.4c0,18.5,-15.7,33.5,-35.1,33.5C399.7,265,384,250,384,231.5Z" class="g4_1" />
<path d="M452.8,218.4L483,204.3Z" class="g3_1" />
<path d="M452.8,218.4L483,204.3" class="g7_1" />
<text x="163" y="145" class="s2_1">l</text>
<text x="181" y="151" class="s3_1">1</text>
<text x="257" y="164" class="s2_1">l</text>
<text x="274" y="170" class="s3_1">2</text>
<text x="559" y="171" class="s2_1">l</text>
<text x="577" y="177" class="s3_1">5</text>
<text x="376" y="175" class="s2_1">l</text>
<text x="393" y="181" class="s3_1">3</text>
<text x="436" y="177" class="s2_1">l</text>
<text x="453" y="184" class="s3_1">4</text>
<text x="277" y="238" class="s2_1">l</text>
<text x="295" y="245" class="s3_1">8</text>
<text x="521" y="239" class="s2_1">l</text>
<text x="539" y="246" dx="0,0.2" class="s3_1">11</text>
<text x="349" y="237" class="s2_1">l</text>
<text x="367" y="243" class="s3_1">9</text>
<text x="463" y="241" class="s2_1">l</text>
<text x="481" y="248" dx="0,0.2" class="s3_1">10</text>
<path d="M569.5,111.4C569.5,92.9,585.3,78,604.7,78c19.4,0,35.1,14.9,35.1,33.4c0,18.5,-15.7,33.5,-35.1,33.5c-19.4,0,-35.2,-15,-35.2,-33.5Z" class="g3_1" />
<path d="M569.5,111.4C569.5,92.9,585.3,78,604.7,78c19.4,0,35.1,14.9,35.1,33.4c0,18.5,-15.7,33.5,-35.1,33.5c-19.4,0,-35.2,-15,-35.2,-33.5Z" class="g4_1" />
<text x="650" y="144" class="s2_1">l</text>
<text x="668" y="151" class="s3_1">6</text>
<path d="M268.4,51H597.5V89.5H268.4Z" class="g8_1" />
<text x="277" y="78" dx="0,-0.3,0,0,0,-0.6,0,0,0,0,-0.6,-0.3,-0.4,0,0.1,-0.1,0,-0.6" class="s4_1">Each link except l</text>
<text x="450" y="83" class="s5_1">14</text>
<text x="467" y="78" dx="0,0,-0.6,0,0,0,-0.6,0,0,-0.1" class="s4_1">: 100 Mbps</text>
<text x="215" y="250" dx="0,-0.1" class="s1_1">sw</text>
<text x="254" y="257" class="s6_1">2</text>
<text x="215" y="120" dx="0,-0.1" class="s1_1">sw</text>
<text x="254" y="127" class="s6_1">1</text>
<text x="312" y="187" dx="0,-0.1" class="s1_1">sw</text>
<text x="351" y="194" class="s6_1">5</text>
<text x="397" y="126" dx="0,-0.1" class="s1_1">sw</text>
<text x="436" y="133" class="s6_1">6</text>
<text x="395" y="248" dx="0,-0.1" class="s1_1">sw</text>
<text x="434" y="255" class="s6_1">7</text>
<text x="482" y="187" dx="0,-0.1" class="s1_1">sw</text>
<text x="521" y="194" class="s6_1">8</text>
<text x="577" y="118" dx="0,-0.1" class="s1_1">sw</text>
<text x="616" y="125" class="s6_1">3</text>
<text x="575" y="258" dx="0,-0.1" class="s1_1">sw</text>
<text x="615" y="265" class="s6_1">4</text>
<text x="17" y="79" class="s4_1">10.0.1.101</text>
<text x="740" y="77" dx="0,0,0,0,0,0,0,0.1,0,0" class="s4_1">10.0.1.201</text>
<text x="22" y="297" class="s4_1">10.0.1.102</text>
<text x="740" y="292" dx="0,0,0,0,0,0,0,0.1,0,0" class="s4_1">10.0.1.202</text>
<text x="250" y="376" dx="0,-0.2,0,-0.9,-0.2,-0.1,-0.7,0,-0.9,-0.1,-0.1,0,-0.8,-0.1,-0.3,0,-0.7,-0.1,-0.3,0,-0.1,-0.1,-0.1,0,-0.1,-0.4" class="s7_1">UK Army SDC Infrastructure</text>
<text x="22" y="30" dx="0,-0.2,0,-0.9,-0.2,-0.1,-0.7" class="s7_1">US Army</text>
<text x="729" y="30" dx="0,-0.2,0,-0.9,-0.2,-0.1,-0.7" class="s7_1">US Army</text>
<path d="M377,295.8h88v33.7H377Z" class="g3_1" />
<path d="M377,295.8h88v33.7H377Z" class="g2_1" />
<text x="396" y="323" dx="0,-0.1,-0.1" class="s1_1">DPI</text>
<path d="M412.2,291.9l.9,-25Z" class="g3_1" />
<path d="M412.2,291.9l.9,-25" class="g7_1" />
<path d="M425.5,293.6l1,-25Z" class="g3_1" />
<path d="M425.5,293.6l1,-25" class="g7_1" />
<text x="364" y="286" class="s2_1">l</text>
<text x="381" y="293" dx="0,0.2" class="s3_1">13</text>
<text x="170" y="230" class="s2_1">l</text>
<text x="188" y="237" class="s3_1">7</text>
<text x="645" y="238" class="s2_1">l</text>
<text x="663" y="245" dx="0,0.2" class="s3_1">12</text>
<text x="434" y="288" class="s2_1">l</text>
<text x="452" y="295" dx="0,0.2" class="s3_1">14</text>
<path d="M204.5,214.5c32.4,-17.5,64.7,-34.9,95.8,-29.8c31,5.2,72.9,43.4,90.6,60.9c17.7,17.4,8.2,37.7,15.5,44c7.3,6.2,18.8,2.1,28.5,-6.5c9.7,-8.6,18.1,-33.9,29.7,-45.3c11.7,-11.4,24,-21.6,40.2,-23.3c16.1,-1.7,22,10.6,56.9,12.9c34.9,2.4,152.7,1.3,152.7,1.3" class="g9_1" />
<path d="M191.6,118.7c39.8,16.2,79.6,32.4,112.6,47.9c33,15.5,68.3,25.9,85.4,45.3c17,19.4,5.6,60.4,16.8,71.2c11.2,10.8,32.4,8.2,50.5,-6.5c18.1,-14.6,36,-60.2,58.2,-81.5c22.2,-21.4,57,-34.5,75.1,-46.6c18.1,-12.1,17,-22,33.6,-25.9c16.6,-3.9,66,2.6,66,2.6" class="g10_1" />


<!-- Any embedded fonts defined here -->
<style type="text/css" ><![CDATA[

@font-face {
	font-family: Calibri-Bold_s;
	src: url("fonts/Calibri-Bold_s.woff") format("woff");
}

@font-face {
	font-family: CourierNewPS-BoldMT_q;
	src: url("fonts/CourierNewPS-BoldMT_q.woff") format("woff");
}

@font-face {
	font-family: Arial-BoldMT_b;
	src: url("fonts/Arial-BoldMT_b.woff") format("woff");
}

]]></style>

</svg>
