<?xml version="1.0" encoding="UTF-8" standalone="no"?>
<!DOCTYPE svg PUBLIC "-//W3C//DTD SVG 1.1//EN"
"http://www.w3.org/Graphics/SVG/1.1/DTD/svg11.dtd">


<!-- Page 1 -->
<svg x="0" y="0" width="1182" height="330" viewBox="0 0 1182 330" version="1.1" xmlns="http://www.w3.org/2000/svg" xmlns:xlink="http://www.w3.org/1999/xlink"
style="display: block;margin-left: auto;margin-right: auto;">
<defs>
<clipPath id="c0_1"><path d="M4.6,508.8v-660H1177.9v660Z" /></clipPath>

<style type="text/css"><![CDATA[
text { white-space: pre; }
path, image { pointer-events: none; }

.s1_1{
font-size: 29.54px;
font-family: Arial-BoldMT_b;
fill: #FFFFFF;
}
.s2_1{
font-size: 19.35px;
font-family: Arial-BoldMT_b;
fill: #FFFFFF;
}
.s3_1{
font-size: 24.44px;
font-family: Calibri-Bold_r;
fill: #000000;
}
.s4_1{
font-size: 29.54px;
font-family: Calibri-Bold_r;
fill: #000000;
}

.g0_1{
fill: #FFFFFF;
}
.g1_1{
fill: #E7E6E6;
fill-opacity: 0.45880002;
}
.g2_1{
fill: none;
stroke: #2F528F;
stroke-width: 1.2222222;
stroke-linecap: butt;
stroke-linejoin: miter;
stroke-miterlimit: 8;
}
.g3_1{
fill: #385723;
}
.g4_1{
fill: none;
stroke: #000000;
stroke-width: 0.9166667;
stroke-linecap: butt;
stroke-linejoin: round;
}
.g5_1{
fill: #2E75B6;
}
.g6_1{
fill: #4472C4;
}
.g7_1{
fill: none;
stroke: #000000;
stroke-width: 6.111111;
stroke-linecap: butt;
stroke-linejoin: round;
}
.g8_1{
fill: none;
stroke: #000000;
stroke-width: 2.4444444;
stroke-linecap: butt;
stroke-linejoin: round;
}
.g9_1{
fill: none;
stroke: #70AD47;
stroke-width: 4.888889;
stroke-linecap: butt;
stroke-linejoin: miter;
stroke-miterlimit: 8;
}
.g10_1{
fill: none;
stroke: #FF0000;
stroke-width: 4.888889;
stroke-linecap: butt;
stroke-linejoin: miter;
stroke-miterlimit: 8;
}

]]></style>

</defs>
<path d="M0,0
L0,330
L1182,330
L1182,0 Z " 
fill="#FFFFFF" stroke="none" />
<g clip-path="url(#c0_1)">
<path d="M4.6,-151.2H1177.9v660H4.6Z" class="g0_1" />
</g>
<path d="M6.7,161.7C6.7,97.8,89.1,45.9,190.8,45.9c101.6,0,184,51.9,184,115.8c0,64,-82.4,115.8,-184,115.8C89.1,277.5,6.7,225.7,6.7,161.7Z" class="g1_1" />
<path d="M6.7,161.7C6.7,97.8,89.1,45.9,190.8,45.9c101.6,0,184,51.9,184,115.8c0,64,-82.4,115.8,-184,115.8C89.1,277.5,6.7,225.7,6.7,161.7Z" class="g2_1" />
<path d="M731.1,160.3c0,-64,100,-115.8,223.4,-115.8c123.4,0,223.4,51.8,223.4,115.8c0,63.9,-100,115.8,-223.4,115.8C831.1,276.1,731.1,224.2,731.1,160.3Z" class="g1_1" />
<path d="M731.1,160.3c0,-64,100,-115.8,223.4,-115.8c123.4,0,223.4,51.8,223.4,115.8c0,63.9,-100,115.8,-223.4,115.8C831.1,276.1,731.1,224.2,731.1,160.3Z" class="g2_1" />
<path d="M376.7,164.4c0,-64,78.9,-115.8,176.3,-115.8c97.4,0,176.4,51.8,176.4,115.8c0,63.9,-79,115.8,-176.4,115.8c-97.4,0,-176.3,-51.9,-176.3,-115.8Z" class="g1_1" />
<path d="M376.7,164.4c0,-64,78.9,-115.8,176.3,-115.8c97.4,0,176.4,51.8,176.4,115.8c0,63.9,-79,115.8,-176.4,115.8c-97.4,0,-176.3,-51.9,-176.3,-115.8Z" class="g2_1" />
<path d="M28,83H173.3v41.5H28Z" class="g3_1" />
<path d="M28,83H173.3v41.5H28Z" class="g4_1" />
<text x="42" y="115" dx="0,-0.1,-0.1,0,-0.1,-0.1" class="s1_1">Server</text>
<text x="142" y="115" class="s1_1">1</text>
<path d="M975.2,74.8h156.6v41.5H975.2Z" class="g3_1" />
<path d="M975.2,74.8h156.6v41.5H975.2Z" class="g4_1" />
<text x="995" y="107" dx="0,-0.1,-0.1,0,-0.1,-0.1" class="s1_1">Server</text>
<text x="1095" y="107" class="s1_1">2</text>
<path d="M27.9,208.8H172.1v41.5H27.9Z" class="g5_1" />
<path d="M27.9,208.8H172.1v41.5H27.9Z" class="g4_1" />
<text x="43" y="241" dx="0,-0.1,-0.1,0,-0.1,-0.1" class="s1_1">Server</text>
<text x="140" y="241" class="s1_1">3</text>
<path d="M971.3,208.8h155.3v41.5H971.3Z" class="g5_1" />
<path d="M971.3,208.8h155.3v41.5H971.3Z" class="g4_1" />
<text x="990" y="241" dx="0,-0.1,-0.1,0,-0.1,-0.1" class="s1_1">Server</text>
<text x="1090" y="241" class="s1_1">4</text>
<path d="M173.3,103.8l76.2,.1Z" class="g6_1" />
<path d="M173.3,103.8l76.2,.1" class="g7_1" />
<path d="M172.1,229.5l74.3,1.3Z" class="g6_1" />
<path d="M172.1,229.5l74.3,1.3" class="g7_1" />
<path d="M880.2,98.2l95,-2.7Z" class="g6_1" />
<path d="M880.2,98.2l95,-2.7" class="g7_1" />
<path d="M886.2,230.8l85.1,1.4Z" class="g6_1" />
<path d="M886.2,230.8l85.1,1.4" class="g7_1" />
<path d="M288,98.4l20.9,45.5Z" class="g6_1" />
<path d="M288,98.4l20.9,45.5" class="g7_1" />
<path d="M290.9,227.1l19.4,-38.2Z" class="g6_1" />
<path d="M290.9,227.1l19.4,-38.2" class="g7_1" />
<path d="M885.2,191.9l1,-62.9Z" class="g6_1" />
<path d="M885.2,191.9l1,-62.9" class="g7_1" />
<path d="M792.8,182.5l57.3,42.9Z" class="g6_1" />
<path d="M792.8,182.5l57.3,42.9" class="g7_1" />
<path d="M371.9,165.3l24.1,.9Z" class="g6_1" />
<path d="M371.9,165.3l24.1,.9" class="g7_1" />
<path d="M624.2,141.6L576.1,106.5Z" class="g6_1" />
<path d="M624.2,141.6L576.1,106.5" class="g8_1" />
<path d="M575.6,231.6l48.6,-42.7Z" class="g6_1" />
<path d="M575.6,231.6l48.6,-42.7" class="g8_1" />
<path d="M300,165.3c0,-18.5,15.8,-33.5,35.2,-33.5c19.4,0,35.1,15,35.1,33.5c0,18.4,-15.7,33.4,-35.1,33.4c-19.4,0,-35.2,-15,-35.2,-33.4Z" class="g6_1" />
<path d="M300,165.3c0,-18.5,15.8,-33.5,35.2,-33.5c19.4,0,35.1,15,35.1,33.5c0,18.4,-15.7,33.4,-35.1,33.4c-19.4,0,-35.2,-15,-35.2,-33.4Z" class="g4_1" />
<text x="315" y="172" dx="0,-0.1" class="s1_1">sw</text>
<text x="354" y="179" class="s2_1">3</text>
<path d="M217.9,100.9c0,-18.5,15.7,-33.5,35.1,-33.5c19.4,0,35.2,15,35.2,33.5c0,18.5,-15.8,33.5,-35.2,33.5c-19.4,0,-35.1,-15,-35.1,-33.5Z" class="g6_1" />
<path d="M217.9,100.9c0,-18.5,15.7,-33.5,35.1,-33.5c19.4,0,35.2,15,35.2,33.5c0,18.5,-15.8,33.5,-35.2,33.5c-19.4,0,-35.1,-15,-35.1,-33.5Z" class="g4_1" />
<text x="227" y="109" dx="0,-0.1" class="s1_1">sw</text>
<text x="266" y="115" class="s2_1">1</text>
<path d="M396,166.2c0,-18.4,15.7,-33.4,35.1,-33.4c19.4,0,35.1,15,35.1,33.4c0,18.5,-15.7,33.5,-35.1,33.5c-19.4,0,-35.1,-15,-35.1,-33.5Z" class="g6_1" />
<path d="M396,166.2c0,-18.4,15.7,-33.4,35.1,-33.4c19.4,0,35.1,15,35.1,33.4c0,18.5,-15.7,33.5,-35.1,33.5c-19.4,0,-35.1,-15,-35.1,-33.5Z" class="g4_1" />
<text x="407" y="172" dx="0,-0.1" class="s1_1">sw</text>
<text x="446" y="179" class="s2_1">4</text>
<path d="M505.8,106.5C505.8,88,521.6,73,541,73c19.4,0,35.1,15,35.1,33.5c0,18.4,-15.7,33.4,-35.1,33.4c-19.4,0,-35.2,-15,-35.2,-33.4Z" class="g6_1" />
<path d="M505.8,106.5C505.8,88,521.6,73,541,73c19.4,0,35.1,15,35.1,33.5c0,18.4,-15.7,33.4,-35.1,33.4c-19.4,0,-35.2,-15,-35.2,-33.4Z" class="g4_1" />
<text x="515" y="113" dx="0,-0.1" class="s1_1">sw</text>
<text x="554" y="119" class="s2_1">6</text>
<path d="M506.3,229.4c0,-18.5,15.7,-33.5,35.1,-33.5c19.4,0,35.1,15,35.1,33.5c0,18.5,-15.7,33.5,-35.1,33.5c-19.4,0,-35.1,-15,-35.1,-33.5Z" class="g6_1" />
<path d="M506.3,229.4c0,-18.5,15.7,-33.5,35.1,-33.5c19.4,0,35.1,15,35.1,33.5c0,18.5,-15.7,33.5,-35.1,33.5c-19.4,0,-35.1,-15,-35.1,-33.5Z" class="g4_1" />
<text x="517" y="246" dx="0,-0.1" class="s1_1">sw</text>
<text x="556" y="253" class="s2_1">4</text>
<path d="M731.1,159.3c0,-18.2,16.1,-32.9,36.1,-32.9c20,0,36.1,14.7,36.1,32.9c0,18.1,-16.1,32.9,-36.1,32.9c-20,0,-36.1,-14.8,-36.1,-32.9Z" class="g6_1" />
<path d="M731.1,159.3c0,-18.2,16.1,-32.9,36.1,-32.9c20,0,36.1,14.7,36.1,32.9c0,18.1,-16.1,32.9,-36.1,32.9c-20,0,-36.1,-14.8,-36.1,-32.9Z" class="g4_1" />
<text x="741" y="165" dx="0,-0.1" class="s1_1">sw</text>
<text x="780" y="172" class="s2_1">5</text>
<path d="M851.1,95.5C851.1,77,866.8,62,886.2,62c19.4,0,35.1,15,35.1,33.5c0,18.5,-15.7,33.5,-35.1,33.5c-19.4,0,-35.1,-15,-35.1,-33.5Z" class="g6_1" />
<path d="M851.1,95.5C851.1,77,866.8,62,886.2,62c19.4,0,35.1,15,35.1,33.5c0,18.5,-15.7,33.5,-35.1,33.5c-19.4,0,-35.1,-15,-35.1,-33.5Z" class="g4_1" />
<text x="859" y="103" dx="0,-0.1" class="s1_1">sw</text>
<text x="898" y="109" class="s2_1">3</text>
<path d="M850.1,225.4c0,-18.5,15.7,-33.5,35.1,-33.5c19.5,0,35.2,15,35.2,33.5c0,18.4,-15.7,33.4,-35.2,33.4c-19.4,0,-35.1,-15,-35.1,-33.4Z" class="g6_1" />
<path d="M850.1,225.4c0,-18.5,15.7,-33.5,35.1,-33.5c19.5,0,35.2,15,35.2,33.5c0,18.4,-15.7,33.4,-35.2,33.4c-19.4,0,-35.1,-15,-35.1,-33.4Z" class="g4_1" />
<text x="861" y="233" dx="0,-0.1" class="s1_1">sw</text>
<text x="900" y="239" class="s2_1">4</text>
<text x="42" y="149" class="s3_1">10.0.1.101</text>
<text x="996" y="138" dx="0,0,0,0,0,0,0,0.1,0,0" class="s3_1">10.0.1.201</text>
<text x="42" y="201" class="s3_1">10.0.1.102</text>
<text x="996" y="204" dx="0,0,0,0,0,0,0,0.1,0,0" class="s3_1">10.0.1.202</text>
<text x="497" y="316" dx="0,-0.2,0,-0.9,-0.2,-0.1,-0.7" class="s4_1">UK Army</text>
<text x="76" y="317" dx="0,-0.2,0,-0.9,-0.2,-0.1,-0.7,0,-0.9,-0.1,-0.1,0,-0.1,0,-0.1,-0.1,0,-0.9" class="s4_1">US Army Division 1</text>
<path d="M220.8,229.5c0,-18.4,15.7,-33.4,35.1,-33.4c19.4,0,35.1,15,35.1,33.4C291,248,275.3,263,255.9,263c-19.4,0,-35.1,-15,-35.1,-33.5Z" class="g6_1" />
<path d="M220.8,229.5c0,-18.4,15.7,-33.4,35.1,-33.4c19.4,0,35.1,15,35.1,33.4C291,248,275.3,263,255.9,263c-19.4,0,-35.1,-15,-35.1,-33.5Z" class="g4_1" />
<text x="230" y="237" dx="0,-0.1" class="s1_1">sw</text>
<text x="269" y="244" class="s2_1">2</text>
<path d="M792.8,134.1L851.1,95.5Z" class="g6_1" />
<path d="M792.8,134.1L851.1,95.5" class="g7_1" />
<path d="M613.9,165.3c0,-18.5,15.7,-33.5,35.2,-33.5c19.4,0,35.1,15,35.1,33.5c0,18.4,-15.7,33.4,-35.1,33.4c-19.5,0,-35.2,-15,-35.2,-33.4Z" class="g6_1" />
<path d="M613.9,165.3c0,-18.5,15.7,-33.5,35.2,-33.5c19.4,0,35.1,15,35.1,33.5c0,18.4,-15.7,33.4,-35.1,33.4c-19.5,0,-35.2,-15,-35.2,-33.4Z" class="g4_1" />
<text x="625" y="171" dx="0,-0.1" class="s1_1">sw</text>
<text x="664" y="178" class="s2_1">4</text>
<path d="M507,221L458.9,185.9Z" class="g6_1" />
<path d="M507,221L458.9,185.9" class="g8_1" />
<path d="M453,139.9l52.8,-33.4Z" class="g6_1" />
<path d="M453,139.9l52.8,-33.4" class="g8_1" />
<path d="M682.8,159.4l48.3,-.1Z" class="g6_1" />
<path d="M682.8,159.4l48.3,-.1" class="g7_1" />
<text x="839" y="313" dx="0,-0.2,0,-0.9,-0.2,-0.1,-0.7,0,-0.9,-0.1,-0.1,0,-0.1,0,-0.1,-0.1,0,-0.9" class="s4_1">US Army Division 2</text>
<path d="M148.2,63.6C194,56.7,239.7,49.8,269.9,59.7c30.2,9.9,34.3,52.2,59.5,63.4c25.2,11.2,59.8,13.2,91.9,3.9c32.1,-9.3,71.8,-53.1,100.9,-59.5C551.3,61,570.5,77.2,596,88.2c25.4,11,56.1,36.6,78.9,45.3c22.9,8.6,32.2,14.4,58.3,6.4c26.1,-8,72.2,-40.3,98.3,-54.3c26.1,-14,24.8,-25.7,58.3,-29.8c33.4,-4.1,142.3,5.2,142.3,5.2" class="g9_1" />
<path d="M152.5,255.9c45.8,8.2,91.5,16.4,121.7,4.6c30.2,-11.7,34.3,-61.8,59.5,-75.1c25.3,-13.3,59.8,-15.6,91.9,-4.6c32.1,11,71.8,62.9,100.9,70.5c29.2,7.7,48.4,-11.5,73.8,-24.5c25.5,-13,56.1,-43.5,78.9,-53.7c22.9,-10.2,32.2,-17.1,58.3,-7.6c26.1,9.4,72.2,47.7,98.3,64.4c26.1,16.6,24.8,30.4,58.3,35.2c33.4,4.9,142.3,-6.1,142.3,-6.1" class="g10_1" />
<path d="M265.1,25l76.2,.1Z" class="g6_1" />
<path d="M265.1,25l76.2,.1" class="g7_1" />
<path d="M561.8,24.8L638,25Z" class="g6_1" />
<path d="M561.8,24.8L638,25" class="g8_1" />
<text x="355" y="33" dx="0,-0.1,-0.1,0,-0.9,-0.1,-0.1,-0.2" class="s4_1">100 Mbps</text>
<text x="653" y="35" dx="0,-0.1,0,-0.9,-0.1,-0.1,-0.2" class="s4_1">40 Mbps</text>


<!-- Any embedded fonts defined here -->
<style type="text/css" ><![CDATA[

@font-face {
	font-family: Arial-BoldMT_b;
	src: url("fonts/Arial-BoldMT_b.woff") format("woff");
}

@font-face {
	font-family: Calibri-Bold_r;
	src: url("fonts/Calibri-Bold_r.woff") format("woff");
}

]]></style>

</svg>
